<svg width="512" height="512" viewBox="0 0 512 512" fill="none" xmlns="http://www.w3.org/2000/svg">
<path d="M80 256C80 135.824 169.826 36.628 286 21.89C276.176 20.643 266.163 20 256 20C125.661 20 20 125.661 20 256C20 386.339 125.661 492 256 492C266.163 492 276.176 491.357 286 490.11C169.826 475.372 80 376.176 80 256Z" fill="#FCD8A7" fill-opacity="0.2"/>
<path d="M492 137C480.954 137 472 128.046 472 117V60C472 48.972 463.028 40 452 40H396C384.954 40 376 31.046 376 20C376 8.954 384.954 0 396 0H452C485.084 0 512 26.916 512 60V117C512 128.046 503.046 137 492 137ZM177.142 362.142L436.142 103.142C443.953 95.331 443.953 82.668 436.142 74.858C428.331 67.048 415.668 67.047 407.858 74.858L148.858 333.858C141.047 341.669 141.047 354.332 148.858 362.142C152.763 366.047 157.881 368 163 368C168.119 368 173.237 366.047 177.142 362.142Z" fill="white"/>
<path d="M336 401C302.916 401 276 374.084 276 341C276 307.916 302.916 281 336 281C369.084 281 396 307.916 396 341C396 374.084 369.084 401 336 401ZM336 321C324.972 321 316 329.972 316 341C316 352.028 324.972 361 336 361C347.028 361 356 352.028 356 341C356 329.972 347.028 321 336 321ZM176 231C142.916 231 116 204.084 116 171C116 137.916 142.916 111 176 111C209.084 111 236 137.916 236 171C236 204.084 209.084 231 176 231ZM176 151C164.972 151 156 159.972 156 171C156 182.028 164.972 191 176 191C187.028 191 196 182.028 196 171C196 159.972 187.028 151 176 151ZM437.02 437.019C485.371 388.667 512 324.38 512 256C512 234.339 509.286 212.811 503.934 192.015C501.181 181.317 490.274 174.876 479.58 177.631C468.883 180.384 462.443 191.288 465.196 201.985C469.711 219.526 472 237.7 472 256C472 375.103 375.103 472 256 472C136.897 472 40 375.103 40 256C40 136.897 136.897 40 256 40C274.594 40 293.075 42.373 310.929 47.053C321.616 49.852 332.546 43.462 335.346 32.777C338.146 22.092 331.755 11.16 321.07 8.36C299.908 2.813 278.015 0 256 0C187.62 0 123.333 26.629 74.98 74.98C26.629 123.333 0 187.62 0 256C0 324.38 26.629 388.667 74.98 437.019C123.333 485.371 187.62 512 256 512C324.38 512 388.667 485.371 437.02 437.019Z" fill="url(#paint0_linear)"/>
<defs>
<linearGradient id="paint0_linear" x1="0" y1="256" x2="512" y2="256" gradientUnits="userSpaceOnUse">
<stop stop-color="#D8AD78"/>
<stop offset="0.503472" stop-color="#FDD9A8"/>
<stop offset="1" stop-color="#D1AA70"/>
</linearGradient>
</defs>
</svg>
